<mxfile host="65bd71144e">
    <diagram id="WzYvxxutvBnY_yiLz3iG" name="Detailed">
        <mxGraphModel dx="2120" dy="1984" grid="1" gridSize="10" guides="1" tooltips="1" connect="1" arrows="1" fold="1" page="1" pageScale="1" pageWidth="827" pageHeight="1169" math="0" shadow="0">
            <root>
                <mxCell id="0"/>
                <mxCell id="1" parent="0"/>
                <mxCell id="34" value="Push alerts" style="edgeStyle=none;html=1;entryX=0;entryY=0.5;entryDx=0;entryDy=0;" edge="1" parent="1" target="32">
                    <mxGeometry relative="1" as="geometry">
                        <mxPoint x="900" y="470" as="sourcePoint"/>
                    </mxGeometry>
                </mxCell>
                <mxCell id="2" value="Prometheus" style="rounded=0;whiteSpace=wrap;html=1;verticalAlign=top;" vertex="1" parent="1">
                    <mxGeometry x="370" y="410" width="530" height="190" as="geometry"/>
                </mxCell>
                <mxCell id="7" style="edgeStyle=none;html=1;entryX=0;entryY=0.5;entryDx=0;entryDy=0;entryPerimeter=0;" edge="1" parent="1" source="3" target="4">
                    <mxGeometry relative="1" as="geometry"/>
                </mxCell>
                <mxCell id="26" style="edgeStyle=none;html=1;entryX=0.5;entryY=1;entryDx=0;entryDy=0;" edge="1" parent="1" source="3" target="16">
                    <mxGeometry relative="1" as="geometry">
                        <Array as="points">
                            <mxPoint x="210" y="510"/>
                        </Array>
                    </mxGeometry>
                </mxCell>
                <mxCell id="30" style="edgeStyle=none;html=1;entryX=0.5;entryY=0;entryDx=0;entryDy=0;" edge="1" parent="1" source="3" target="27">
                    <mxGeometry relative="1" as="geometry">
                        <Array as="points">
                            <mxPoint x="210" y="510"/>
                        </Array>
                    </mxGeometry>
                </mxCell>
                <mxCell id="31" style="edgeStyle=none;html=1;entryX=0.5;entryY=1;entryDx=0;entryDy=0;" edge="1" parent="1" source="3" target="20">
                    <mxGeometry relative="1" as="geometry"/>
                </mxCell>
                <mxCell id="3" value="Scrapper" style="rounded=0;whiteSpace=wrap;html=1;" vertex="1" parent="1">
                    <mxGeometry x="410" y="480" width="120" height="60" as="geometry"/>
                </mxCell>
                <mxCell id="4" value="Storage" style="shape=cylinder3;whiteSpace=wrap;html=1;boundedLbl=1;backgroundOutline=1;size=15;" vertex="1" parent="1">
                    <mxGeometry x="605" y="470" width="60" height="80" as="geometry"/>
                </mxCell>
                <mxCell id="6" style="edgeStyle=none;html=1;entryX=1;entryY=0.5;entryDx=0;entryDy=0;entryPerimeter=0;" edge="1" parent="1" source="5" target="4">
                    <mxGeometry relative="1" as="geometry"/>
                </mxCell>
                <mxCell id="5" value="HTTP Server" style="rounded=0;whiteSpace=wrap;html=1;" vertex="1" parent="1">
                    <mxGeometry x="740" y="480" width="120" height="60" as="geometry"/>
                </mxCell>
                <mxCell id="20" value="Service Discovery" style="rounded=0;whiteSpace=wrap;html=1;" vertex="1" parent="1">
                    <mxGeometry x="410" y="290" width="120" height="60" as="geometry"/>
                </mxCell>
                <mxCell id="21" value="" style="group" vertex="1" connectable="0" parent="1">
                    <mxGeometry x="90" y="300" width="200" height="120" as="geometry"/>
                </mxCell>
                <mxCell id="22" value="Server" style="rounded=0;whiteSpace=wrap;html=1;verticalAlign=top;" vertex="1" parent="21">
                    <mxGeometry width="160" height="60" as="geometry"/>
                </mxCell>
                <mxCell id="12" value="" style="group" vertex="1" connectable="0" parent="21">
                    <mxGeometry x="20" y="30" width="180" height="90" as="geometry"/>
                </mxCell>
                <mxCell id="13" value="Middleware" style="rounded=0;whiteSpace=wrap;html=1;verticalAlign=top;" vertex="1" parent="12">
                    <mxGeometry width="160" height="60" as="geometry"/>
                </mxCell>
                <mxCell id="15" value="" style="group" vertex="1" connectable="0" parent="12">
                    <mxGeometry x="20" y="30" width="160" height="60" as="geometry"/>
                </mxCell>
                <mxCell id="16" value="Application/Service" style="rounded=0;whiteSpace=wrap;html=1;verticalAlign=top;" vertex="1" parent="15">
                    <mxGeometry width="160" height="60" as="geometry"/>
                </mxCell>
                <mxCell id="27" value="Pushgateway" style="rounded=0;whiteSpace=wrap;html=1;" vertex="1" parent="1">
                    <mxGeometry x="150" y="570" width="120" height="60" as="geometry"/>
                </mxCell>
                <mxCell id="29" style="edgeStyle=none;html=1;entryX=0.5;entryY=1;entryDx=0;entryDy=0;" edge="1" parent="1" source="28" target="27">
                    <mxGeometry relative="1" as="geometry"/>
                </mxCell>
                <mxCell id="28" value="Short-lived jobs" style="rounded=0;whiteSpace=wrap;html=1;" vertex="1" parent="1">
                    <mxGeometry x="150" y="670" width="120" height="60" as="geometry"/>
                </mxCell>
                <mxCell id="32" value="Alertmanager" style="rounded=0;whiteSpace=wrap;html=1;" vertex="1" parent="1">
                    <mxGeometry x="1020" y="440" width="120" height="60" as="geometry"/>
                </mxCell>
                <mxCell id="36" style="edgeStyle=none;html=1;entryX=1;entryY=0.75;entryDx=0;entryDy=0;" edge="1" parent="1" source="33" target="2">
                    <mxGeometry relative="1" as="geometry"/>
                </mxCell>
                <mxCell id="33" value="UI" style="rounded=0;whiteSpace=wrap;html=1;" vertex="1" parent="1">
                    <mxGeometry x="1020" y="525" width="120" height="60" as="geometry"/>
                </mxCell>
            </root>
        </mxGraphModel>
    </diagram>
    <diagram id="OpyVdEik1Mb-k3bXdFcw" name="Overview">
        <mxGraphModel dx="2120" dy="1984" grid="1" gridSize="10" guides="1" tooltips="1" connect="1" arrows="1" fold="1" page="1" pageScale="1" pageWidth="827" pageHeight="1169" math="0" shadow="0">
            <root>
                <mxCell id="kMdppbTtLcrBpwiYQwC4-0"/>
                <mxCell id="kMdppbTtLcrBpwiYQwC4-1" parent="kMdppbTtLcrBpwiYQwC4-0"/>
                <mxCell id="qHew8SEazPrK-mg_PGpX-2" value="pull" style="edgeStyle=none;html=1;entryX=1;entryY=0.5;entryDx=0;entryDy=0;" edge="1" parent="kMdppbTtLcrBpwiYQwC4-1" source="qHew8SEazPrK-mg_PGpX-0" target="qHew8SEazPrK-mg_PGpX-1">
                    <mxGeometry relative="1" as="geometry"/>
                </mxCell>
                <mxCell id="qHew8SEazPrK-mg_PGpX-0" value="&lt;b&gt;Prometheus&lt;/b&gt;" style="rounded=0;whiteSpace=wrap;html=1;" vertex="1" parent="kMdppbTtLcrBpwiYQwC4-1">
                    <mxGeometry x="340" y="460" width="120" height="60" as="geometry"/>
                </mxCell>
                <mxCell id="qHew8SEazPrK-mg_PGpX-1" value="&lt;b&gt;Target&lt;br&gt;&lt;/b&gt;/metrics" style="rounded=0;whiteSpace=wrap;html=1;" vertex="1" parent="kMdppbTtLcrBpwiYQwC4-1">
                    <mxGeometry x="110" y="460" width="120" height="60" as="geometry"/>
                </mxCell>
                <mxCell id="qHew8SEazPrK-mg_PGpX-4" value="PromQL" style="edgeStyle=none;html=1;entryX=1;entryY=0.5;entryDx=0;entryDy=0;" edge="1" parent="kMdppbTtLcrBpwiYQwC4-1" source="qHew8SEazPrK-mg_PGpX-3" target="qHew8SEazPrK-mg_PGpX-0">
                    <mxGeometry relative="1" as="geometry"/>
                </mxCell>
                <mxCell id="qHew8SEazPrK-mg_PGpX-3" value="&lt;b&gt;UI&lt;/b&gt;" style="rounded=0;whiteSpace=wrap;html=1;" vertex="1" parent="kMdppbTtLcrBpwiYQwC4-1">
                    <mxGeometry x="560" y="460" width="120" height="60" as="geometry"/>
                </mxCell>
            </root>
        </mxGraphModel>
    </diagram>
</mxfile>